# xmcd CD database file
#
# Track frame offsets:
#	150
#	14005
#	27888
#	42763
#	57458
#	72042
#	86857
#	100448
#	116420
#	131929
#	148412
#	163593
#	178092
#	192431
#	207786
#
# Disc length: 2966 seconds
#
# Revision: 0
# Processed by: cddbd v1.5.1PL0 Copyright (c) Steve Scherf et al.
# Submitted via: CDex 1.51
#
DISCID=e30b940f
DTITLE=Billie Holiday - Billy remembers Billie
DYEAR=1900
DGENRE=Jazz
TTITLE0=On the Sunny Side of the Street
TTITLE1=My Old Flame
TTITLE2=Fine and Mellow
TTITLE3=Embraceable You
TTITLE4=As Time Goes By
TTITLE5=He's Funny That Way
TTITLE6=I'll Get By
TTITLE7=I Cover the Waterfront
TTITLE8=Yesterdays
TTITLE9=I'll Be Seeing You
TTITLE10=Lover, Come Back to Me
TTITLE11=Strange Fruit
TTITLE12=God Bless the Child
TTITLE13=Don't Explain
TTITLE14=Lover Man (Oh, Where Can You Be?)
EXTD=
EXTT0=
EXTT1=
EXTT2=
EXTT3=
EXTT4=
EXTT5=
EXTT6=
EXTT7=
EXTT8=
EXTT9=
EXTT10=
EXTT11=
EXTT12=
EXTT13=
EXTT14=
PLAYORDER=
